<?xml version="1.0" encoding="iso-8859-1"?>
<!-- Generator: Adobe Illustrator 19.0.0, SVG Export Plug-In . SVG Version: 6.00 Build 0)  -->
<svg xmlns="http://www.w3.org/2000/svg" xmlns:xlink="http://www.w3.org/1999/xlink" version="1.1" id="Capa_1" x="0px" y="0px" viewBox="0 0 512 512" style="enable-background:new 0 0 512 512;" xml:space="preserve" width="512px" height="512px">
<g>
	<g>
		<g>
			<path d="M32,464V48c0-8.837,7.163-16,16-16h240v64c0,17.673,14.327,32,32,32h64v48h32v-64c0.025-4.253-1.645-8.341-4.64-11.36     l-96-96C312.341,1.645,308.253-0.024,304,0H48C21.49,0,0,21.491,0,48v416c0,26.51,21.49,48,48,48h112v-32H48     C39.164,480,32,472.837,32,464z" fill="#cccccc"/>
			<path d="M512,288v-32h-80c-8.837,0-16,7.163-16,16v144h32v-64h64v-32h-64v-32H512z" fill="#cccccc"/>
			<rect x="368" y="256" width="32" height="160" fill="#cccccc"/>
			<path d="M352,288c0-17.673-14.327-32-32-32h-64c-17.673,0-32,14.327-32,32v96c0,17.673,14.327,32,32,32h64     c17.673,0,32-14.327,32-32v-32c0-17.673-14.327-32-32-32h-32v32h32v32h-64v-96H352z" fill="#cccccc"/>
		</g>
	</g>
</g>
<g>
</g>
<g>
</g>
<g>
</g>
<g>
</g>
<g>
</g>
<g>
</g>
<g>
</g>
<g>
</g>
<g>
</g>
<g>
</g>
<g>
</g>
<g>
</g>
<g>
</g>
<g>
</g>
<g>
</g>
</svg>
