<?xml version="1.0" encoding="iso-8859-1"?>
<!-- Generator: Adobe Illustrator 19.0.0, SVG Export Plug-In . SVG Version: 6.00 Build 0)  -->
<svg xmlns="http://www.w3.org/2000/svg" xmlns:xlink="http://www.w3.org/1999/xlink" version="1.1" id="Capa_1" x="0px" y="0px" viewBox="0 0 512 512" style="enable-background:new 0 0 512 512;" xml:space="preserve" width="512px" height="512px">
<g>
	<g>
		<g>
			<path d="M501.333,384H448V122.667l34.987-35.307c3.928-4.12,3.928-10.599,0-14.72l25.493-24.107     c4.212-4.119,4.288-10.872,0.169-15.084c-0.056-0.057-0.112-0.114-0.169-0.169L479.04,3.2c-4.148-4.066-10.786-4.066-14.933,0     L445.76,20.373C440.976,8.106,429.167,0.022,416,0H180.8c-0.98,0.044-1.949,0.224-2.88,0.533h-0.853     c-1.187,0.511-2.271,1.234-3.2,2.133L67.2,109.333c-0.889,0.897-1.611,1.944-2.133,3.093v0.96     c-0.3,0.897-0.479,1.829-0.533,2.773L64,117.333V384H10.667C4.776,384,0,388.776,0,394.667v42.667c0,17.673,14.327,32,32,32h32     V480c0,17.673,14.327,32,32,32h320c17.673,0,32-14.327,32-32v-10.667h32c17.673,0,32-14.327,32-32v-42.667     C512,388.776,507.224,384,501.333,384z M471.253,25.6l14.827,14.933l-17.92,16.853l-14.72-14.72L471.253,25.6z M460.587,79.893     L445.76,94.827L416,64.747l14.827-14.933L460.587,79.893z M311.253,170.133L400.64,80l29.76,29.973l-89.067,90.133     L311.253,170.133z M321.92,211.413l-36.16,14.72l14.613-36.907L321.92,211.413z M170.667,36.373v70.293h-70.293L170.667,36.373z      M85.333,128h96c5.891,0,10.667-4.776,10.667-10.667v-96h224c3.492,0.089,6.72,1.882,8.64,4.8c-0.568,0.3-1.104,0.658-1.6,1.067     L288.96,162.56c-0.802,0.881-1.451,1.891-1.92,2.987l-29.867,75.2c-2.189,5.469,0.47,11.677,5.939,13.867     c2.544,1.018,5.383,1.018,7.928,0l74.667-30.08c1.103-0.501,2.113-1.186,2.987-2.027l77.973-78.293V384H85.333V128z M426.667,480     c0,5.891-4.776,10.667-10.667,10.667H96c-5.891,0-10.667-4.776-10.667-10.667v-10.667h341.333V480z M490.667,437.333     c0,5.891-4.776,10.667-10.667,10.667H32c-5.891,0-10.667-4.776-10.667-10.667v-32h32v32h21.333v-32h42.667v21.333h21.333v-21.333     h42.667v32h21.333v-32h42.667v21.333h21.333v-21.333h42.667v32h21.333v-32h42.667v21.333h21.333v-21.333h42.667v32h21.333v-32h32     V437.333z" fill="#cccccc"/>
			<path d="M352,266.667h-24.427c-4.868-0.208-9.258,2.909-10.667,7.573c-1.243,4.217-2.923,8.293-5.013,12.16     c-1.97,4.145-1.068,9.085,2.24,12.267l17.28,17.28l-15.04,15.04l-17.707-16.853c-3.337-3.313-8.45-4.049-12.587-1.813     c-3.87,2.084-7.945,3.764-12.16,5.013c-4.664,1.409-7.781,5.799-7.573,10.667v24h-21.013v-24.427     c0.208-4.868-2.909-9.258-7.573-10.667c-4.215-1.249-8.29-2.929-12.16-5.013c-4.137-2.236-9.249-1.499-12.587,1.813l-17.28,17.28     l-15.04-15.04l17.173-17.28c3.313-3.337,4.049-8.45,1.813-12.587c-2.091-3.867-3.771-7.943-5.013-12.16     c-1.409-4.664-5.799-7.781-10.667-7.573h-24v-21.013h24.427c4.868,0.208,9.258-2.909,10.667-7.573     c1.243-4.217,2.923-8.293,5.013-12.16c1.97-4.145,1.068-9.085-2.24-12.267l-17.28-17.28l15.04-15.04l17.707,16.853     c3.337,3.313,8.45,4.049,12.587,1.813c3.87-2.084,7.945-3.764,12.16-5.013c4.664-1.409,7.781-5.799,7.573-10.667v-24h32v-21.333     h-42.987c-5.891,0-10.667,4.776-10.667,10.667v27.52l-1.28,0.533l-19.52-19.52c-4.16-4.136-10.88-4.136-15.04,0l-30.187,30.187     c-4.136,4.16-4.136,10.88,0,15.04l19.52,19.52l-0.533,1.28h-27.627c-5.891,0-10.667,4.776-10.667,10.667v42.667     c0,5.891,4.776,10.667,10.667,10.667h27.52l0.533,1.28l-19.413,20.16c-4.136,4.16-4.136,10.88,0,15.04l30.187,30.187     c4.16,4.136,10.88,4.136,15.04,0l19.52-19.52l1.28,0.533v27.093c0,5.891,4.776,10.667,10.667,10.667h42.667     c5.891,0,10.667-4.776,10.667-10.667v-27.52l1.28-0.533l19.52,19.52c4.16,4.136,10.88,4.136,15.04,0l30.187-30.187     c4.136-4.16,4.136-10.88,0-15.04l-19.52-19.52l0.533-1.28h27.627c5.891,0,10.667-4.776,10.667-10.667v-42.773H352V266.667z" fill="#cccccc"/>
			<path d="M234.667,256c0-11.782,9.551-21.333,21.333-21.333v-21.333c-23.564,0-42.667,19.103-42.667,42.667     s19.103,42.667,42.667,42.667s42.667-19.103,42.667-42.667h-21.333c0,11.782-9.551,21.333-21.333,21.333     S234.667,267.782,234.667,256z" fill="#cccccc"/>
		</g>
	</g>
</g>
<g>
</g>
<g>
</g>
<g>
</g>
<g>
</g>
<g>
</g>
<g>
</g>
<g>
</g>
<g>
</g>
<g>
</g>
<g>
</g>
<g>
</g>
<g>
</g>
<g>
</g>
<g>
</g>
<g>
</g>
</svg>
