<?xml version="1.0" encoding="iso-8859-1"?>
<!-- Generator: Adobe Illustrator 19.0.0, SVG Export Plug-In . SVG Version: 6.00 Build 0)  -->
<svg xmlns="http://www.w3.org/2000/svg" xmlns:xlink="http://www.w3.org/1999/xlink" version="1.1" id="Capa_1" x="0px" y="0px" viewBox="0 0 512 512" style="enable-background:new 0 0 512 512;" xml:space="preserve" width="512px" height="512px">
<g>
	<g>
		<path d="M377,90c-24.813,0-45,20.187-45,45s20.187,45,45,45s45-20.187,45-45S401.813,90,377,90z M377,150c-8.271,0-15-6.729-15-15    s6.729-15,15-15s15,6.729,15,15S385.271,150,377,150z" fill="#cccccc"/>
	</g>
</g>
<g>
	<g>
		<path d="M497,362.001h-16.076c-2.552-17.763-9.56-34.106-19.862-47.849l11.397-11.397c5.857-5.858,5.857-15.355,0-21.213    c-5.857-5.857-15.355-5.858-21.213,0l-11.397,11.397c-13.743-10.301-30.086-17.309-47.849-19.861c0-19.145,0-14.981,0-34.152    c17.763-2.552,34.106-9.56,47.849-19.861l11.397,11.397c5.86,5.859,15.356,5.857,21.213,0c5.858-5.858,5.858-15.355,0-21.213    l-11.397-11.397c10.301-13.743,17.31-30.086,19.862-47.849H497V150c8.284,0,15-6.716,15-15s-6.716-15-15-15h-16.076    c-2.552-17.763-9.56-34.106-19.862-47.849l11.397-11.397c5.857-5.858,5.857-15.355,0-21.213c-5.857-5.857-15.355-5.858-21.213,0    l-11.397,11.397C426.106,40.636,409.763,33.628,392,31.076V15c0-8.284-6.716-15-15-15s-15,6.716-15,15v16.076    c-17.763,2.552-34.106,9.56-47.849,19.862l-11.397-11.397c-5.857-5.858-15.355-5.858-21.213,0c-5.858,5.858-5.858,15.355,0,21.213    l11.397,11.397c-10.301,13.743-17.31,30.086-19.862,47.849c-12.358,0-21.794,0-34.152,0c-2.552-17.763-9.56-34.106-19.862-47.849    l11.397-11.397c5.857-5.858,5.857-15.355,0-21.213c-5.857-5.857-15.355-5.858-21.213,0l-11.397,11.397    C184.106,40.636,167.763,33.628,150,31.076V15c0-8.284-6.716-15-15-15s-15,6.716-15,15v16.076    c-17.763,2.552-34.106,9.56-47.849,19.862L60.753,39.541c-5.857-5.858-15.355-5.858-21.213,0c-5.858,5.858-5.858,15.355,0,21.213    l11.397,11.397C40.636,85.894,33.628,102.237,31.076,120H15c-8.284,0-15,6.716-15,15s6.716,15,15,15h16.076    c2.552,17.763,9.56,34.106,19.862,47.849l-11.397,11.397c-5.858,5.858-5.858,15.355,0,21.213c5.857,5.858,15.356,5.858,21.213,0    l11.397-11.397c13.743,10.301,30.086,17.31,47.849,19.862c0,18.998,0,14.902,0,34.152c-17.763,2.552-34.106,9.56-47.849,19.862    l-11.397-11.397c-5.857-5.858-15.355-5.858-21.213,0c-5.858,5.858-5.858,15.355,0,21.213l11.397,11.397    C40.636,327.894,33.628,344.237,31.076,362H15c-8.284,0-15,6.716-15,15s6.716,15,15,15h16.076    c2.552,17.763,9.56,34.106,19.862,47.849l-11.397,11.397c-5.858,5.858-5.858,15.355,0,21.213c5.857,5.858,15.356,5.858,21.213,0    l11.397-11.397c13.743,10.301,30.086,17.31,47.849,19.862V497c0,8.284,6.716,15,15,15s15-6.716,15-15v-16.076    c17.763-2.552,34.106-9.56,47.849-19.861l11.397,11.397c5.86,5.859,15.356,5.857,21.213,0c5.858-5.858,5.858-15.355,0-21.213    l-11.397-11.397c10.301-13.743,17.31-30.086,19.862-47.849c12.358,0,21.794,0,34.152,0c2.552,17.763,9.56,34.106,19.862,47.849    l-11.397,11.397c-5.858,5.858-5.858,15.355,0,21.213c5.857,5.858,15.356,5.858,21.213,0l11.397-11.397    c13.743,10.301,30.086,17.31,47.849,19.862V497c0,8.284,6.716,15,15,15s15-6.716,15-15v-16.076    c17.763-2.552,34.106-9.56,47.849-19.861l11.397,11.397c5.86,5.859,15.356,5.857,21.213,0c5.858-5.858,5.858-15.355,0-21.213    l-11.397-11.397c10.301-13.743,17.31-30.086,19.862-47.849H497c8.284,0,15-6.716,15-15S505.284,362.001,497,362.001z M377,60    c41.355,0,75,33.645,75,75s-33.645,75-75,75c-41.355,0-75-33.645-75-75S335.645,60,377,60z M60,135c0-41.355,33.645-75,75-75    s75,33.645,75,75s-33.645,75-75,75S60,176.355,60,135z M135,452c-41.355,0-75-33.645-75-75c0-41.355,33.645-75,75-75    s75,33.645,75,75C210,418.355,176.355,452,135,452z M273.076,362c-12.358,0-21.794,0-34.152,0    c-2.552-17.763-9.56-34.106-19.862-47.849l11.397-11.397c5.857-5.858,5.857-15.355,0-21.213c-5.857-5.857-15.355-5.858-21.213,0    l-11.397,11.397c-13.743-10.301-30.086-17.309-47.849-19.861c0-19.145,0-14.981,0-34.152c17.763-2.552,34.106-9.56,47.849-19.861    l11.397,11.397c5.86,5.859,15.356,5.857,21.213,0c5.858-5.858,5.858-15.355,0-21.213l-11.397-11.397    c10.301-13.743,17.31-30.086,19.862-47.849c12.358,0,21.794,0,34.152,0c2.552,17.763,9.56,34.106,19.862,47.849l-11.397,11.397    c-5.858,5.858-5.858,15.355,0,21.213c5.857,5.858,15.356,5.858,21.213,0l11.397-11.397c13.743,10.301,30.086,17.31,47.849,19.862    c0,18.996,0,14.9,0,34.15c-17.763,2.552-34.106,9.56-47.849,19.862l-11.397-11.397c-5.857-5.858-15.355-5.858-21.213,0    c-5.858,5.858-5.858,15.355,0,21.213l11.397,11.397C282.637,327.894,275.628,344.237,273.076,362z M377,452    c-41.355,0-75-33.645-75-75c0-41.355,33.645-75,75-75c41.355,0,75,33.645,75,75C452,418.355,418.355,452,377,452z" fill="#cccccc"/>
	</g>
</g>
<g>
	<g>
		<path d="M377,332c-24.813,0-45,20.187-45,45s20.187,45,45,45s45-20.187,45-45S401.813,332,377,332z M377,392    c-8.271,0-15-6.729-15-15s6.729-15,15-15s15,6.729,15,15S385.271,392,377,392z" fill="#cccccc"/>
	</g>
</g>
<g>
	<g>
		<path d="M135,332c-24.813,0-45,20.187-45,45s20.187,45,45,45s45-20.187,45-45S159.813,332,135,332z M135,392    c-8.271,0-15-6.729-15-15s6.729-15,15-15s15,6.729,15,15S143.271,392,135,392z" fill="#cccccc"/>
	</g>
</g>
<g>
	<g>
		<path d="M135,90c-24.813,0-45,20.187-45,45s20.187,45,45,45s45-20.187,45-45S159.813,90,135,90z M135,150c-8.271,0-15-6.729-15-15    s6.729-15,15-15s15,6.729,15,15S143.271,150,135,150z" fill="#cccccc"/>
	</g>
</g>
<g>
</g>
<g>
</g>
<g>
</g>
<g>
</g>
<g>
</g>
<g>
</g>
<g>
</g>
<g>
</g>
<g>
</g>
<g>
</g>
<g>
</g>
<g>
</g>
<g>
</g>
<g>
</g>
<g>
</g>
</svg>
